<svg width="14" height="18" viewBox="0 0 14 18" fill="none" xmlns="http://www.w3.org/2000/svg">
<path d="M13.4635 10.0937H4.71692C5.34162 9.80976 6.01847 9.59613 6.71727 9.37826C7.98162 8.98434 9.28286 8.57611 10.3413 7.68637H13.4635C13.7167 7.68637 13.9219 7.48119 13.9219 7.22804C13.9219 6.97488 13.7167 6.7697 13.4635 6.7697H11.1649C11.7076 5.91968 11.8415 4.87715 11.5131 3.8131C11.0276 2.23972 9.63897 0.924522 8.13613 0.614789C6.7409 0.326898 5.18525 0.641286 3.97676 1.45519C2.91973 2.16703 2.21916 3.20187 2.00378 4.36954C1.95794 4.6184 2.12248 4.85759 2.37152 4.90343C2.62002 4.94783 2.85939 4.78491 2.9054 4.53569C3.07549 3.61257 3.63784 2.78865 4.4888 2.21573C5.49714 1.53647 6.79032 1.27221 7.95137 1.51284C9.14124 1.75776 10.2459 2.81515 10.6373 4.08344C10.8142 4.65636 10.9771 5.75528 10.083 6.67911C10.0515 6.71161 10.0167 6.73846 9.98448 6.7697H0.536214C0.283057 6.7697 0.0778809 6.97488 0.0778809 7.22804C0.0778809 7.48119 0.283057 7.68637 0.536214 7.68637H8.65341C7.97281 8.02213 7.22222 8.26067 6.4446 8.50313C5.22999 8.88182 3.97994 9.27395 2.94023 10.0937H0.536214C0.283057 10.0937 0.0778809 10.2989 0.0778809 10.552C0.0778809 10.8052 0.283057 11.0104 0.536214 11.0104H2.07427C1.34497 12.1401 1.32487 13.7017 2.08506 15.0509C3.06886 16.7965 4.97936 17.4879 6.8127 17.4879C7.45007 17.4879 8.07813 17.4045 8.65462 17.2526C11.0695 16.6163 12.5669 14.9252 12.563 12.8394C12.5626 12.5862 12.3575 12.3818 12.1047 12.3818C12.1043 12.3818 12.1039 12.3818 12.1039 12.3818C11.8508 12.3821 11.646 12.588 11.6463 12.8408C11.6503 14.8127 9.98272 15.9546 8.42116 16.3661C6.45534 16.8835 3.92215 16.4438 2.88356 14.6011C2.31494 13.5917 2.16616 12.0627 3.18345 11.0916C3.21391 11.0626 3.24727 11.0384 3.27836 11.0104H13.4635C13.7167 11.0104 13.9219 10.8052 13.9219 10.552C13.9219 10.2989 13.7167 10.0937 13.4635 10.0937Z" fill="#1D1C1A"/>
</svg>
