<svg width="22" height="22" viewBox="0 0 22 22" fill="none" xmlns="http://www.w3.org/2000/svg">
<path d="M19.2014 7.61276C19.1921 6.91849 19.0621 6.23113 18.8173 5.58142C18.6049 5.03339 18.2806 4.53569 17.865 4.1201C17.4494 3.70451 16.9517 3.38019 16.4037 3.16784C15.7623 2.92708 15.0848 2.7969 14.3999 2.78284C13.518 2.74342 13.2384 2.73242 10.9999 2.73242C8.76144 2.73242 8.47453 2.73242 7.59911 2.78284C6.9145 2.797 6.23726 2.92718 5.59619 3.16784C5.04808 3.38004 4.5503 3.70431 4.13469 4.11992C3.71908 4.53552 3.39481 5.03331 3.18261 5.58142C2.94137 6.22229 2.81147 6.89969 2.79853 7.58434C2.75911 8.46709 2.74719 8.74667 2.74719 10.9852C2.74719 13.2237 2.74719 13.5097 2.79853 14.386C2.81228 15.0717 2.94153 15.7482 3.18261 16.3908C3.39516 16.9387 3.71968 17.4363 4.13543 17.8517C4.55117 18.2671 5.049 18.5913 5.59711 18.8034C6.23642 19.0539 6.91378 19.1934 7.60003 19.2159C8.48278 19.2553 8.76236 19.2673 11.0009 19.2673C13.2394 19.2673 13.5263 19.2673 14.4017 19.2159C15.0866 19.2024 15.7642 19.0726 16.4055 18.8318C16.9534 18.6192 17.451 18.2948 17.8665 17.8793C18.2821 17.4637 18.6065 16.9661 18.8191 16.4183C19.0602 15.7766 19.1894 15.1001 19.2032 14.4135C19.2426 13.5317 19.2545 13.2521 19.2545 11.0127C19.2527 8.77417 19.2527 8.49001 19.2014 7.61276ZM10.9944 15.2183C8.65328 15.2183 6.75669 13.3218 6.75669 10.9806C6.75669 8.63942 8.65328 6.74284 10.9944 6.74284C12.1184 6.74284 13.1963 7.18931 13.991 7.98405C14.7857 8.77878 15.2322 9.85667 15.2322 10.9806C15.2322 12.1045 14.7857 13.1824 13.991 13.9771C13.1963 14.7719 12.1184 15.2183 10.9944 15.2183ZM15.4009 7.57425C15.2711 7.57438 15.1425 7.5489 15.0226 7.49928C14.9026 7.44966 14.7936 7.37688 14.7019 7.2851C14.6101 7.19331 14.5373 7.08433 14.4877 6.96439C14.438 6.84444 14.4126 6.71589 14.4127 6.58609C14.4127 6.45638 14.4382 6.32794 14.4879 6.20811C14.5375 6.08827 14.6103 5.97939 14.702 5.88767C14.7937 5.79596 14.9026 5.7232 15.0224 5.67357C15.1423 5.62393 15.2707 5.59838 15.4004 5.59838C15.5301 5.59838 15.6585 5.62393 15.7784 5.67357C15.8982 5.7232 16.0071 5.79596 16.0988 5.88767C16.1905 5.97939 16.2633 6.08827 16.3129 6.20811C16.3626 6.32794 16.3881 6.45638 16.3881 6.58609C16.3881 7.13242 15.9463 7.57425 15.4009 7.57425Z" fill="#DA1F39"/>
<path d="M10.9944 13.7335C12.5148 13.7335 13.7472 12.5011 13.7472 10.9808C13.7472 9.46048 12.5148 8.22803 10.9944 8.22803C9.47415 8.22803 8.2417 9.46048 8.2417 10.9808C8.2417 12.5011 9.47415 13.7335 10.9944 13.7335Z" fill="#DA1F39"/>
</svg>
