<svg width="18" height="16" viewBox="0 0 18 16" fill="none" xmlns="http://www.w3.org/2000/svg">
<path d="M0.357178 4.95471L8.72818 9.30835C8.81215 9.35202 8.90539 9.37481 9.00004 9.37481C9.09468 9.37481 9.18792 9.35202 9.27189 9.30835L17.6429 4.9555V12.518C17.6429 13.1702 17.3934 13.7978 16.9454 14.2719C16.4975 14.746 15.8851 15.0307 15.2339 15.0676L15.0893 15.0716H2.91075C2.2585 15.0716 1.63096 14.8221 1.15685 14.3741C0.682752 13.9262 0.398034 13.3138 0.361106 12.6626L0.357178 12.518V4.95471ZM2.91075 0.928711H15.0893C15.7416 0.928668 16.3691 1.17822 16.8432 1.62617C17.3173 2.07412 17.602 2.68651 17.639 3.33771L17.6429 3.48228V3.62685L9.00004 8.12114L0.357178 3.62685V3.48228C0.357135 2.83003 0.606685 2.20249 1.05463 1.72839C1.50258 1.25429 2.11497 0.969567 2.76618 0.93264L2.91075 0.928711H15.0893H2.91075Z" fill="#DA1F39"/>
</svg>
